<?xml version="1.0" encoding="utf-8"?>
<!-- Generator: Adobe Illustrator 16.0.0, SVG Export Plug-In . SVG Version: 6.00 Build 0)  -->
<!DOCTYPE svg PUBLIC "-//W3C//DTD SVG 1.1//EN" "http://www.w3.org/Graphics/SVG/1.1/DTD/svg11.dtd">
<svg version="1.1" id="Layer_1" xmlns="http://www.w3.org/2000/svg" xmlns:xlink="http://www.w3.org/1999/xlink" x="0px" y="0px"
	 width="332.512px" height="332.098px" viewBox="0 0 332.512 332.098" style="enable-background:new 0 0 332.512 332.098;"
	 xml:space="preserve">
<style type="text/css">
<![CDATA[
	.st0{fill:#FFFFFF;}
]]>
</style>
<g>
	<g id="XMLID_1_">
		<g>
			<path class="st0" d="M151.038,167.431c0.09,7.5,6.64,13.029,15.29,12.919c7.33-0.091,13.739-6.58,13.67-13.83
				c-0.069-6.74-6.92-13.5-13.63-13.44C157.488,153.141,150.938,159.271,151.038,167.431z M165.308,187.421
				c-11.84,0.73-21.14-8.739-21.09-19.81c0.06-12.75,7.35-20.62,19.04-20.55c13.88,0.09,22.939,8.05,22.93,20.149
				C186.278,182.591,178.618,186.611,165.308,187.421z"/>
			<path class="st0" d="M289.558,142.971c0-4.37-0.58-8.23,0.109-11.851c2.011-10.49-5.25-15.99-11.37-22.1
				c-0.5-0.5-3.279,0.08-3.38,0.54C271.408,124.421,275.598,134.151,289.558,142.971z M269.648,236.331
				c1.391-1.13,2.78-2.26,4.17-3.399c2.561-2.091,5.271-4.04,7.631-6.351c1.439-1.42,3.079-3.29,3.34-5.14
				c0.84-5.841,1.061-11.761,1.561-18.15c-12.08,5.16-17.88,14.28-17.729,27.45C268.648,232.611,269.288,234.461,269.648,236.331z
				 M205.988,51.651c7.11,10.109,17.33,13.57,31.57,10.149c-9.851-5.93-13.971-18.899-27.84-16.869c-1.99,0.3-3.98,0.579-5.98,0.869
				C204.468,47.76,204.828,49.991,205.988,51.651z M189.018,291.381c10.979-1.39,22.8,3.011,30.311-8.449
				c0.93-1.421,2.33-2.521,3.521-3.761c-1.79-1.09-3.45-2.64-5.399-3.188C206.417,272.881,196.478,278.191,189.018,291.381z
				 M98.768,273.571c7.19,10.398,17.391,14.479,29.73,13.779c-1.34-10.271-12.32-18.569-26.29-19.609
				c-1.8-0.13-3.67,0.609-5.511,0.939C97.378,270.321,97.788,272.141,98.768,273.571z M117.578,57.51
				c11.09,1.521,16.489-6.22,22.33-12.979c0.46-0.53-0.271-3.01-0.41-3c-8.49,0.22-17.74-2.87-24.681,4.76
				c-2.35,2.59-4.06,5.75-6.05,8.641C111.708,55.791,114.638,56.651,117.578,57.51z M83.138,178.591
				c5.09,5.011,11.17,9.44,14.84,15.341c6.76,10.851,5.94,22.739,1.23,34.439c-0.71,1.74-1.58,4.25-0.851,5.479
				c0.65,1.091,3.45,1.181,5.301,1.189c3.319,0.01,6.63-0.57,9.939-0.54c14.51,0.16,30.12-3.319,40.46,11.42
				c3.11,4.44,5.9,9.12,8.66,13.79c1.64,2.761,2.96,5.92,6.46,2.04c6.229-6.899,12.1-14.16,18.63-20.77
				c3.271-3.312,7.37-7.211,11.58-7.91c9.97-1.65,20.38-4.03,30.08,1.88c3.52,2.14,5.039,0.97,4.93-3.2
				c-0.319-11.47-0.79-22.96-0.399-34.41c0.149-4.42,1.229-9.96,4.061-12.869c5.359-5.5,12.319-9.431,18.561-14.08
				c1.771-1.319,4.159-2.601,4.771-4.41c0.369-1.09-1.931-3.37-3.391-4.73c-6.79-6.359-13.84-12.45-20.55-18.899
				c-8.591-8.271-11.061-27.07-5.471-37.771c1.069-2.05,1.24-4.57,1.83-6.87c-2.7-0.41-5.42-1.31-8.069-1.14
				c-7.011,0.439-13.98,1.78-20.98,1.99c-18.609,0.56-29.84-9.96-37.069-25.83c-1.83-4.01-3.47-3.92-5.909-0.75
				c-2.95,3.819-5.851,7.68-8.931,11.39c-7.71,9.3-16.359,17.76-29.27,17.82c-8.811,0.04-17.63-1.931-24.891-2.811
				c0.28,11.33,1.38,23.36,0.551,35.25c-0.41,5.931-3.381,12.32-6.96,17.221c-4.091,5.59-9.53,10.46-17.521,11.09
				c-4.39,0.34-5.77,3.149-2.14,6.71C76.068,172.021,79.708,175.211,83.138,178.591z M48.058,217.171
				c1.99,2.641,5.61,4.062,8.48,6.04c0.46-2.77,1.02-5.529,1.35-8.31c0.19-1.642,0.03-3.312,0.03-4.98c0-7.76-6.78-16.83-14.58-19.5
				C41.218,207.631,41.018,207.811,48.058,217.171z M45.818,124.871c-0.04,0.59,2.45,2.14,3.23,1.84
				c8.14-3.09,14.79-13.45,14.72-24.02c-0.25-0.75-0.97-2.87-1.689-4.99c-1.87,0.92-3.71,1.89-5.61,2.76
				C45.658,105.401,46.358,115.471,45.818,124.871z M4.528,160.591c3.23,0.19,6.881-0.529,9.61,0.73
				c16.97,7.86,33.41,16.76,45.66,31.411c7.67,9.18,8.02,30.539,1.56,40.68c-2.8,4.39-5.62,4.18-8.659,0.64
				c-5.2-6.06-11.07-11.77-15.04-18.568c-2.44-4.171-2.07-10.08-2.54-15.25c-0.37-4.08,0.1-8.23-0.141-12.33
				c-0.41-6.881-6.02-12.46-12.939-12.78c-0.801-0.03-2.61,2.21-2.4,2.92c3.66,12.03,2.29,23.83-0.02,35.971
				c-2.681,14.141,2.88,26.359,13.119,35.939c7.25,6.8,16.48,5.2,25.131,2.899c26.109-6.939,41.83-37.479,28.8-58.569
				c-6.16-9.98-16.66-17.311-25.45-25.57c-1.34-1.27-4.06-1.399-6.16-1.47c-23.14-0.83-39.18-11.81-50.84-31.91
				c-6.94-11.96-3.42-23.03,0.32-33.09c2.439-6.55,11.359-11.31,18.21-15.479c13.54-8.25,23.06-19.311,28.229-34.29
				c0.641-1.86,2.76-3.2,4.19-4.79c1.85,1.72,4.779,3.119,5.359,5.189c3.46,12.28,6.45,24.7,9.41,37.12
				c0.771,3.22,0.88,6.59,1.25,9.9c1.94,17.47-4.52,29.239-20.2,36.859c-8.55,4.15-13.17,1.48-13.04-7.66
				c0.091-6.31-0.25-12.75,0.931-18.869c0.68-3.561,3.71-6.851,6.2-9.83c3.939-4.721,8.29-9.101,12.51-13.57
				c4.39-4.64,4.46-12.16-0.22-16.521c-0.631-0.579-3.4-0.159-3.91,0.631c-6.67,10.17-14.971,18.39-25.34,25.04
				c-8.82,5.67-13.71,14.81-15.681,25.22c-2.069,10.95,2.521,18.89,11.25,25.2c22.99,16.6,52.51,10.22,66.351-14.49
				c4.859-8.68,1.479-37.561-5.19-44.42c-19.41-19.94-20.18-55.181-1.62-73.44c5.771-5.68,12.351-8.78,20.7-7.46
				c9.68,1.53,19.53,2.19,29.07,4.3c8.75,1.931,16.35-0.26,24.199-3.42c3.57-1.439,7.62-1.689,11.45-2.479
				c-0.229,3.84,0.891,8.54-0.92,11.37c-9.29,14.439-18.24,29.33-29.42,42.25c-10.09,11.659-30.2,6.47-39.3,1.63
				c-3.92-2.09-5.87-5.46-1.12-9.36c4.88-4,9.16-8.84,14.35-12.35c3.24-2.181,7.62-3.101,11.61-3.63c7.22-0.94,14.58-0.87,21.8-1.87
				c2.32-0.32,5.08-2.19,6.36-4.17c1.61-2.48,1.91-5.811,2.77-8.771c-2.52-0.12-5.05-0.22-7.569-0.34
				c-9.011-0.43-18.23,0.2-26.99-1.52c-17.69-3.48-38.45,7.26-41.271,22.47c-5.09,27.5,24.08,56.22,50.94,48.58
				c8.44-2.4,15.36-10.891,22.4-17.23c7.029-6.34,10.92-13.92,11.29-24.27c0.739-20.34,19.79-45.391,43.521-47.3
				c10.271-0.83,19.58,0.359,26.38,9.13c3.37,4.34,7.021,8.51,10,13.1c8.45,13,19.351,22.7,34.431,27.36
				c1.72,0.54,4.021,2.479,4.159,3.949c0.12,1.36-1.989,3.57-3.62,4.37c-19.27,9.351-39.649,13.54-61.01,11.521
				c-10.569-1-23.16-14.22-25.271-24.91c-0.891-4.5,0.67-6.74,5.069-7.03c14.69-0.939,28.86-0.83,39.32,12.46
				c4.59,5.84,10.38,11.351,19.149,8.301c2.221-0.78,4.08-2.591,6.101-3.921c-1.54-1.51-3.04-3.06-4.63-4.529
				c-6.601-6.11-14.051-11.53-19.62-18.46c-6.229-7.75-13.03-14.03-22.221-17.84c-13.09-5.431-24.891-1.301-33.601,12.06
				c-12.13,18.58-7.779,45.25,9.5,59.16c10.03,8.07,21.9,4.8,33.061,5.45c8.761,0.51,15.761-3.54,22.71-9.29
				c17.261-14.29,44.33-16.091,61.801-5.561c12.54,7.561,18.438,18.16,15.949,32.98c-1.369,8.189-1.841,16.59-3.829,24.609
				c-2.512,10.08,0.738,18.61,4.898,27.29c1.392,2.9,1.96,6.19,2.9,9.29c-3.41-0.1-7.062,0.54-10.2-0.439
				c-18.7-5.899-34.149-17.25-47.39-31.189c-8.591-9.04-8.5-29.84-0.9-39.91c1.221-1.62,7.04-2.17,8.45-0.83
				c6.109,5.83,12.49,11.921,16.55,19.16c2.771,4.931,1.86,11.92,2.59,17.99c-0.68,15.271,0.55,17.63,9.602,20.6
				c3.079,1.011,5.278,1.19,4.608-3.119c-2.06-13.271,0.65-26.301,1.352-39.45c0.619-11.57-2.98-24.311-14.62-30.84
				c-14.311-8.04-28.189-4.57-40.521,5.029c-13.67,10.65-19.601,24.891-17.16,42.2c1.391,9.83,9.131,15.37,15.359,22.061
				c8.75,9.38,18.801,12.939,31.811,14.319c15.811,1.67,28.569,11.84,37.579,25.471c7.11,10.739,7.75,22.67,4.682,34.721
				c-0.87,3.409-3.61,6.789-6.37,9.17c-5.4,4.659-11.021,9.359-17.26,12.688c-13.75,7.32-21.58,18.921-26.23,33.171
				c-1.449,4.439-3.93,5.471-5.938,1.159c-4.211-9.05-9.261-18.22-10.852-27.85c-2.199-13.261-2.38-27.03-1.72-40.5
				c0.42-8.45,19.229-21.312,27.7-20.49c1.26,0.12,3.229,2.141,3.359,3.439c1.689,16.62,1.319,32.479-14.12,43.891
				c-5.779,4.271-9.369,10.64-6.971,18.42c0.551,1.79,2.58,3.13,3.921,4.681c1.34-1.181,3.189-2.101,3.931-3.58
				c4.329-8.609,10.55-15.279,19.13-19.71c12.608-6.489,18.81-17.87,21.318-30.899c0.96-4.96-0.92-11.9-4.05-15.99
				c-19.619-25.649-54.46-23.88-72.359,2.96c-5.311,7.971-3.949,16.521-3.5,25.11c0.229,4.3-0.079,8.729,0.859,12.869
				c0.812,3.54,2.352,7.399,4.761,10.021c15.979,17.36,19.689,37.29,12.529,59.271c-5.069,15.551-17.819,22.99-33.88,20.979
				c-12.029-1.51-24.04-3.55-36.12-4.1c-4.89-0.221-9.899,3.01-14.909,4.5c-3.7,1.09-7.479,1.909-11.23,2.85
				c0.351-3.87-0.56-8.529,1.28-11.46c8.959-14.271,17.97-28.609,28.29-41.89c8.881-11.4,21.71-6.671,33.37-5.062
				c0.33,0.04,0.67,0.15,0.949,0.312c3.23,1.859,6.45,3.729,9.671,5.6c-2.2,3.101-4.229,6.34-6.62,9.28
				c-10.511,12.88-24.779,14.71-40.141,13.75c-6.84-0.431-12.66,5.189-13.189,12.08c-0.061,0.77,1.42,2.369,2.2,2.38
				c14.851,0.18,29.75,0.92,44.529-0.08c7.5-0.51,15.729-2.78,21.92-6.84c9.63-6.32,11.09-17.061,8.63-27.801
				c-5.3-23.17-27.06-38.96-50.609-35.51c-6.109,0.899-11.811,6.521-17.061,10.76c-4.22,3.399-7.42,8.061-11.199,12.04
				c-4.761,5.029-6.431,10.841-7.149,17.819c-2.66,25.75-15.97,43.32-41.74,47.94c-9.069,1.63-21.14,1.35-28.12-9.341
				c-3.989-6.119-8.81-11.699-13.14-17.601c-7.34-10.029-15.98-18.25-28.32-21.859c-2.239-0.649-4.13-2.521-6.189-3.819
				c1.74-2.11,3.09-5.439,5.279-6.13c11.171-3.521,22.461-6.771,33.891-9.271c5.93-1.3,12.24-1.029,18.38-1.159
				c18.15-0.38,26.93,11.54,31.61,25.189c1.63,4.72,0.97,8.5-5.83,7.78c-7.59-0.801-15.301-0.62-22.851-1.69
				c-2.81-0.399-5.55-2.83-7.87-4.859c-4.64-4.029-8.88-8.529-13.489-12.609c-1.7-1.5-4.13-3.471-5.98-3.24
				c-4.22,0.511-8.3,2.261-12.43,3.5c2.359,2.271,4.78,4.471,7.06,6.82c5.98,6.14,12.7,11.771,17.63,18.68
				c6.681,9.341,15.48,14.92,25.95,18.28c11.54,3.7,23.65-3.471,30.8-17.74c10.471-20.87,3.59-47.739-17.42-57.609
				c-9.27-4.359-21.7-2.319-32.7-2.511c-5.92-0.109-10.84,1.801-15.42,7.021c-17.84,20.29-56.93,18.229-73.619-2.79
				c-5.971-7.53-5.75-15.61-4.631-24.11c0.99-7.59,2.07-15.17,3.45-22.689c1.91-10.391,0.84-20.069-4.729-29.311
				C5.338,167.381,5.298,163.771,4.528,160.591z"/>
		</g>
	</g>
</g>
</svg>
